<?xml version="1.0" encoding="UTF-8"?>
<svg xmlns="http://www.w3.org/2000/svg" version="1.1" viewBox="0 0 595.28 841.89">
  <defs>
    <style>
      .cls-1, .cls-2 {
        fill: #005f8e;
      }

      .cls-2 {
        opacity: .59;
      }

      .cls-3 {
        fill: #009cd3;
      }

      .cls-4 {
        fill: #aeaeaf;
      }
    </style>
  </defs>
  <!-- Generator: Adobe Illustrator 28.7.1, SVG Export Plug-In . SVG Version: 1.2.0 Build 142)  -->
  <g>
    <g id="Layer_1">
      <g id="LOGO_WORD">
        <path class="cls-2" d="M192.41,384.41c-.05-.03-.09-.06-.14-.09-.07-.05-.13-.09-.2-.15.11.08.22.16.34.24Z"/>
        <path class="cls-1" d="M498.15,382.44c-1.43,0-2.55-.34-3.8-.99-1.25-.64-2.36-1.57-3.24-2.76l-14.66-19.61h2.58c9.18,0,15.67-7.92,15.67-17.7v-1.34c0-9.78-6.49-17.7-15.67-17.7h-17.82v-.03h-20.18c-.91,0-1.65.74-1.65,1.65v2c0,.91.74,1.65,1.65,1.65h1c3.18,0,5.76,2.75,5.76,6.14v2.16h.02v44.26c-.76-.66-1.39-1.5-1.82-2.46l-24.03-53.89c-1.04-2.29-4.28-2.3-5.32-.02l-23.1,50.41-2.82,5.86h-4.91c-.74-.01-.85-.54-.85-.84v-47.66c0-5.12-4.15-9.26-9.26-9.26h-11.31c-.84,0-1.53.69-1.53,1.53v2.29c0,.82.66,1.48,1.47,1.48h1.26c3.39,0,6.14,2.75,6.14,6.14v46.32h-17.22c-.65.02-.89-.54-.89-.84v-47.66c0-5.12-4.15-9.26-9.26-9.26h-14.33s-.04,0-.06.01h-.04s-.04-.01-.06-.01h-82.18c-1.71,0-3.29.74-4.34,1.97h-.01c-.5-.25-1.05-.5-1.63-.72-.05-.02-.12-.05-.17-.07-1.01-.41-2.12-.76-3.27-1.06-.09-.03-.17-.04-.29-.07h-.01c-3.63-.89-6.37-1.29-8.76-1.29-2.14,0-5,.07-8.64,1.2-.02.01-.03.01-.05.02-6.09,1.71-14.97,6.54-14.97,15.93,0,8.69,7.44,14.05,15.06,18.14.78.44,1.61.87,2.41,1.29.5.23,1.07.51,1.65.82,2.38,1.21,5.38,2.85,7.95,4.51,5.11,3.33,10.74,8.29,6.11,14.4-4.01,5.32-25.06,4.84-27.68-7.11-.13-.61-.31-1.28-.39-2.05-.1-.99-.18-1.92-.18-2.84,0-.98-.8-1.76-1.77-1.76h-3.05c-.98,0-1.78.8-1.78,1.78v4.17c.51,5.68,3.06,9.74,7.38,12.83.13.09.26.19.4.29.22.14.43.29.69.44.1.07.21.15.36.23,3.4,2.18,7.73,4.28,16.33,4.28,9.46,0,14.95-3.16,16.85-4.42,0,0,0-.01.03-.01,4.4-2.63,8.3-6.96,8.3-13.33,0-8.69-7.01-13.96-14.63-18.06-.81-.44-1.62-.86-2.44-1.27-.52-.29-1.08-.56-1.62-.83-2.37-1.22-5.38-2.85-7.95-4.52-5.12-3.31-10.76-8.28-6.12-14.39,2.65-3.52,11.5-4.33,17.88-.98h.02s.03.02.04.03c1.42.74,2.73,1.69,3.8,2.88h.01s.02.04.03.05c.01.01.02.02.02.03,1.11,1.23,1.97,2.68,2.49,4.41.05.16.1.34.14.53.35,1.5.39,3.33.39,4.04v.3c0,1.06.85,1.94,1.92,1.94h3.03c1.06,0,1.93-.87,1.93-1.93v-3.49c-.34-3.62-1.48-6.59-3.43-9.07-.3-.39-.61-.77-.96-1.14.1-.06.21-.11.31-.17,1.28-.69,2.74-1.08,4.3-1.08h5.83c1.09,0,1.97.88,1.97,1.97v47.66c0,5.11,4.15,9.26,9.26,9.26h11.08c.97,0,1.76-.79,1.76-1.76v-1.85c0-.93-.76-1.69-1.7-1.69h-1.03c-3.39,0-6.14-2.75-6.14-6.14v-45.48c0-1.09.88-1.97,1.96-1.97h4.28c2.89,0,5.51,1.17,7.4,3.07,1.37,1.36,2.36,3.1,2.8,5.04v50.78h40.05c.86,0,1.61-.6,1.8-1.43l2.55-11.21c.26-1.6-.41-2.8-1.5-2.8h-2.11c-1.11,0-2.07.76-2.33,1.83l-.39,1.67c-.83,3.59-4.03,6.12-7.71,6.12h-15.91c-1.26,0-2.28-1.02-2.28-2.28v-19.32c0-1.26,1.02-2.28,2.28-2.28h21.92c1.25,0,2.27-1.02,2.27-2.27v-1.81c0-1.25-1.02-2.27-2.27-2.27h-21.92c-1.26,0-2.28-1.02-2.28-2.28v-18.68c0-1.26,1.02-2.28,2.28-2.28h14.61c4.32,0,7.81,3.5,7.81,7.81v1.54c0,.98.79,1.77,1.77,1.77h2.61c.8,0,1.45-.65,1.45-1.46v-8.77c0-.13-.01-.26-.02-.38h.72c3.39,0,6.14,2.75,6.14,6.14v51.23c0,.78.63,1.41,1.41,1.41h65.11c1.01,0,1.82-.81,1.82-1.81v-2.36c0-.98-.78-1.78-1.77-1.8h0s-.02-.01-.05-.01c-.7-.03-8.26-.57-4.56-8.46.16-.35.3-.67.41-.97l1.1-2.35c.14-.31.45-.51.79-.51h22.75c.22,0,.41.13.51.32l4.69,10.1c2.3,4.94,7.25,8.09,12.68,8.09h15.93v-27.48c.05.09.12.18.19.27,3.94,5.16,12.63,16.74,17.42,23.13,2.11,2.82,5.31,4.46,8.68,4.46h10.61c1.06,0,1.31-.73,1.31-1.33v-1.54c0-.92-.71-1.36-1.27-1.36ZM424.24,362.35h-16.67c-.45,0-.76-.47-.57-.89l8.3-18c.23-.49.92-.49,1.16,0l8.36,18c.2.42-.11.89-.58.89ZM462.05,353.98c-.47,0-.84-.4-.84-.9v-24.74c0-.5.37-.9.84-.9h7.65c6.87,0,12.45,5.94,12.45,13.27,0,3.67-1.4,6.98-3.65,9.38-2.26,2.41-5.37,3.89-8.8,3.89h-7.65Z"/>
      </g>
      <g>
        <path class="cls-3" d="M143.23,341.14v-24.81c13.07,5.73,23.43,16.5,28.63,29.85h-23.91c-2.71,0-4.8-2.38-4.72-5.04Z"/>
        <path class="cls-3" d="M133.74,341.52v-28.33c1.43.33,2.83.71,4.22,1.16v27.17c.4,5.09,4.96,9.65,9.87,9.8h25.75c.38,1.45.72,3.05.98,4.48h-26.97c-7.77-.07-14.07-6.52-13.85-14.28Z"/>
        <path class="cls-3" d="M95.96,343.47h-23.44c5.49-12.1,15.33-21.82,27.51-27.15v25.75c0,.53,0,1.07.02,1.59-1.35-.12-2.71-.19-4.09-.19Z"/>
        <path class="cls-3" d="M95.96,352.96h-26.71c.35-1.43.75-2.84,1.21-4.22h25.5c1.53-.03,3.04.03,4.53.16.2,1.52.49,3.02.85,4.49-1.76-.26-3.56-.41-5.38-.43Z"/>
        <path class="cls-3" d="M96.63,362.44h-28.8c.08-1.42.22-2.83.41-4.22h28.39c2.18-.03,4.31.15,6.37.55.68,1.81,1.46,3.57,2.34,5.27-2.74-.97-5.66-1.53-8.71-1.6Z"/>
        <path class="cls-3" d="M99.85,391.71v23.32c-12.54-5.54-22.56-15.72-27.9-28.36h23.19c2.59,0,4.72,2.3,4.72,5.04Z"/>
        <path class="cls-3" d="M109.33,391.33v26.88c-1.43-.34-2.84-.73-4.22-1.17v-25.71c-.02-5.04-4.61-9.9-9.63-9.92h-25.44c-.42-1.38-.79-2.78-1.09-4.21h26.53c7.77.06,14.07,6.38,13.85,14.13Z"/>
        <path class="cls-3" d="M118.82,390.41v29.13c-1.42-.08-2.83-.2-4.22-.39v-28.74c-.25-9.92-9.26-18.51-18.23-18.5h-28.28c-.16-1.39-.27-2.79-.31-4.21h28.6c12.48,0,22.46,10.5,22.45,22.7Z"/>
        <path class="cls-3" d="M128.07,385.33c.19,1.56.27,3.17.22,4.8v29.07c-1.39.17-2.79.29-4.21.35v-29.42c-.02-2.57-.39-5.05-1.07-7.41,1.62.97,3.31,1.84,5.05,2.61Z"/>
        <path class="cls-3" d="M133.41,387.33c1.42.44,2.88.8,4.36,1.1.03.78.03,1.56,0,2.35v26.36c-1.38.44-2.78.82-4.21,1.14v-27.51c0-1.16-.05-2.32-.15-3.45Z"/>
        <path class="cls-3" d="M147.12,389.37h22.93c-5.62,11.5-15.22,20.7-27.01,25.81v-24.4c0-.53,0-1.07-.02-1.59,1.35.12,2.71.19,4.09.19Z"/>
        <path class="cls-3" d="M173.62,379.89c-.39,1.43-.83,2.84-1.34,4.22h-25.17c-1.53.03-3.04-.03-4.53-.16-1.8-.16-3.58-.44-5.31-.83-1.64-.36-3.24-.83-4.8-1.39-2.03-.72-3.98-1.6-5.84-2.61-3.58-1.95-6.84-4.42-9.66-7.3-.03-.03-.06-.06-.08-.09-.33-.32-.63-.65-.94-.97-.02-.03-.03-.04-.05-.06-2.72-2.99-5-6.38-6.75-10.08-.9-1.9-1.66-3.88-2.25-5.93-.47-1.61-.85-3.26-1.11-4.94-.28-1.73-.45-3.51-.5-5.31-.03-.78-.03-1.56,0-2.35v-27.73c1.38-.44,2.79-.83,4.22-1.16v28.88c0,1.17.05,2.32.15,3.46.17,1.91.49,3.78.94,5.6.49,2.01,1.15,3.96,1.96,5.83,1.66,3.85,3.95,7.37,6.73,10.44l.14.14c.3.31.61.63.9.96,0,0,0,0,.02.02,2.93,2.99,6.37,5.49,10.16,7.39,1.81.9,3.7,1.67,5.66,2.27,1.79.57,3.65,1,5.55,1.28,1.76.27,3.56.41,5.38.43h26.51Z"/>
        <path class="cls-3" d="M175.3,370.41c-.11,1.42-.29,2.82-.52,4.21h-28.33c-2.18.03-4.3-.15-6.37-.54-2.14-.41-4.19-1.02-6.15-1.83-3.83-1.58-7.27-3.91-10.14-6.79-.05-.05-.09-.11-.15-.16-.3-.3-.58-.6-.86-.91-.03-.03-.05-.06-.08-.08-2.75-3.04-4.89-6.63-6.25-10.57-.69-1.99-1.17-4.07-1.45-6.21-.19-1.56-.27-3.17-.22-4.8v-30.46c1.39-.18,2.79-.3,4.21-.37v30.83c.02,2.57.39,5.05,1.07,7.41,1.17,4.09,3.28,7.8,6.05,10.9.35.35.68.69,1,1.05l.02.02c2.96,2.98,6.58,5.3,10.62,6.73,2.74.96,5.66,1.52,8.71,1.59h28.85Z"/>
        <path class="cls-3" d="M124.27,342.43v-30.55c1.42.08,2.82.19,4.21.37v30.18c.25,9.92,8.31,17.99,18.24,18.5h28.57c.14,1.39.2,3.03.21,4.45h-28.78c-12.6.13-22.83-10.35-22.45-22.95Z"/>
      </g>
      <path class="cls-4" d="M502.95,332.17c-.76,0-1.45-.12-2.08-.35-.63-.23-1.17-.57-1.62-1.01-.45-.44-.8-.97-1.06-1.6-.26-.63-.38-1.33-.38-2.11s.14-1.48.41-2.11c.27-.63.64-1.16,1.11-1.6s1.01-.77,1.63-1.01c.62-.23,1.28-.35,1.99-.35.78,0,1.48.12,2.11.35.63.23,1.17.57,1.62,1.01.45.44.8.97,1.05,1.6.25.63.37,1.33.37,2.11s-.14,1.49-.41,2.13c-.27.64-.65,1.17-1.11,1.6-.47.43-1.01.76-1.63,1-.62.23-1.28.35-1.99.35ZM502.95,331.7c.64,0,1.24-.1,1.8-.31.57-.21,1.06-.51,1.47-.91s.74-.88.98-1.45c.24-.57.36-1.21.36-1.93,0-1.41-.42-2.53-1.25-3.36-.83-.83-1.95-1.24-3.37-1.24-.65,0-1.26.1-1.82.31-.56.21-1.04.51-1.46.91s-.74.88-.98,1.46c-.24.57-.36,1.21-.36,1.93,0,1.41.42,2.53,1.26,3.36.84.83,1.96,1.24,3.35,1.24ZM505.13,325.9c0,.7-.35,1.15-1.06,1.37l1.22,2.24h-.61l-1.14-2.14h-1.91v2.14h-.53v-5.02h2.31c.55,0,.97.13,1.27.39.3.26.45.6.45,1.03ZM501.63,326.9h1.72c.81,0,1.22-.32,1.22-.97s-.41-.97-1.22-.97h-1.72v1.94Z"/>
      <path class="cls-3" d="M208.91,398.69h4.23v4.58h3.54v-4.58h4.23v13.29h-4.23v-4.99h-3.54v4.99h-4.23v-13.29Z"/>
      <path class="cls-3" d="M251.06,398.69h9.89v3.26h-5.73v1.69h5.36v3.26h-5.36v1.82h5.79v3.26s-9.94,0-9.94,0v-13.29Z"/>
      <path class="cls-3" d="M299.31,409.84h-4.21l-.58,2.14h-4.17l4.32-13.29h5.21l4.28,13.29h-4.26l-.6-2.14ZM296,406.54h2.42l-1.21-4.41-1.21,4.41Z"/>
      <path class="cls-3" d="M333.59,398.69h4.23v9.66h5.57v3.63h-9.79v-13.29Z"/>
      <path class="cls-3" d="M373.71,402.32h-3.71v-3.63h11.64v3.63h-3.7v9.66h-4.23v-9.66Z"/>
      <path class="cls-3" d="M411.15,398.69h4.23v4.58h3.54v-4.58h4.23v13.29h-4.23v-4.99h-3.54v4.99h-4.23v-13.29Z"/>
    </g>
  </g>
</svg>
